FILE "Tsuukai GANGAN Koushinkyoku (1995)(ADK - SNK)(en-ja)[aka Aggressors of Dark Kombat].img" BINARY
  TRACK 01 MODE1/2352
    INDEX 01 00:00:00
  TRACK 02 AUDIO
    PREGAP 00:02:00
    INDEX 01 02:05:37
  TRACK 03 AUDIO
    INDEX 00 02:36:36
    INDEX 01 02:38:36
  TRACK 04 AUDIO
    INDEX 00 02:56:32
    INDEX 01 02:58:32
  TRACK 05 AUDIO
    INDEX 00 03:32:33
    INDEX 01 03:34:33
  TRACK 06 AUDIO
    INDEX 00 04:43:33
    INDEX 01 04:45:33
  TRACK 07 AUDIO
    INDEX 00 05:20:29
    INDEX 01 05:22:29
  TRACK 08 AUDIO
    INDEX 00 06:08:26
    INDEX 01 06:10:26
  TRACK 09 AUDIO
    INDEX 00 06:28:24
    INDEX 01 06:30:24
  TRACK 10 AUDIO
    INDEX 00 06:54:24
    INDEX 01 06:56:24
  TRACK 11 AUDIO
    INDEX 00 09:12:38
    INDEX 01 09:14:38
  TRACK 12 AUDIO
    INDEX 00 11:30:04
    INDEX 01 11:32:04
  TRACK 13 AUDIO
    INDEX 00 12:16:00
    INDEX 01 12:18:00
  TRACK 14 AUDIO
    INDEX 00 14:39:00
    INDEX 01 14:41:00
  TRACK 15 AUDIO
    INDEX 00 17:04:27
    INDEX 01 17:06:27
  TRACK 16 AUDIO
    INDEX 00 17:31:25
    INDEX 01 17:33:25
  TRACK 17 AUDIO
    INDEX 00 19:49:41
    INDEX 01 19:51:41
  TRACK 18 AUDIO
    INDEX 00 22:05:65
    INDEX 01 22:07:65
  TRACK 19 AUDIO
    INDEX 00 22:28:60
    INDEX 01 22:30:60
  TRACK 20 AUDIO
    INDEX 00 24:06:60
    INDEX 01 24:08:60
  TRACK 21 AUDIO
    INDEX 00 26:13:46
    INDEX 01 26:15:46
  TRACK 22 AUDIO
    INDEX 00 26:33:44
    INDEX 01 26:35:44
  TRACK 23 AUDIO
    INDEX 00 26:59:44
    INDEX 01 27:01:44
  TRACK 24 AUDIO
    INDEX 00 27:36:44
    INDEX 01 27:38:44
  TRACK 25 AUDIO
    INDEX 00 28:13:40
    INDEX 01 28:15:40
  TRACK 26 AUDIO
    INDEX 00 28:51:40
    INDEX 01 28:53:40
  TRACK 27 AUDIO
    INDEX 00 29:17:37
    INDEX 01 29:19:37
  TRACK 28 AUDIO
    INDEX 00 31:46:36
    INDEX 01 31:48:36
  TRACK 29 AUDIO
    INDEX 00 34:04:45
    INDEX 01 34:06:45
  TRACK 30 AUDIO
    INDEX 00 34:29:46
    INDEX 01 34:31:46
  TRACK 31 AUDIO
    INDEX 00 36:49:01
    INDEX 01 36:51:01
  TRACK 32 AUDIO
    INDEX 00 39:04:61
    INDEX 01 39:06:61
  TRACK 33 AUDIO
    INDEX 00 39:32:12
    INDEX 01 39:34:12
  TRACK 34 AUDIO
    INDEX 00 41:34:13
    INDEX 01 41:36:13
  TRACK 35 AUDIO
    INDEX 00 43:51:54
    INDEX 01 43:53:54
  TRACK 36 AUDIO
    INDEX 00 44:42:54
    INDEX 01 44:44:54
  TRACK 37 AUDIO
    INDEX 00 47:05:51
    INDEX 01 47:07:51
  TRACK 38 AUDIO
    INDEX 00 49:29:66
    INDEX 01 49:31:66
  TRACK 39 AUDIO
    INDEX 00 52:22:18
    INDEX 01 52:24:18
  TRACK 40 AUDIO
    INDEX 00 54:51:15
    INDEX 01 54:53:15
  TRACK 41 AUDIO
    INDEX 00 57:49:41
    INDEX 01 57:51:41
  TRACK 42 AUDIO
    INDEX 00 60:35:22
    INDEX 01 60:37:22
  TRACK 43 AUDIO
    INDEX 00 62:01:63
    INDEX 01 62:03:63
  TRACK 44 AUDIO
    INDEX 00 64:33:14
    INDEX 01 64:35:14
  TRACK 45 AUDIO
    INDEX 00 66:54:30
    INDEX 01 66:56:30
